<svg version="1.1" id="Layer_1" xmlns="http://www.w3.org/2000/svg" xmlns:xlink="http://www.w3.org/1999/xlink" x="0px" y="0px"
	 width="100%" viewBox="0 0 1064 616" enable-background="new 0 0 1064 616" xml:space="preserve">
<path fill="#FDFEFF" opacity="1.000000" stroke="none" 
	d="
M599.000000,617.000000 
	C400.833405,617.000000 203.166779,616.987610 5.500227,617.093567 
	C1.751368,617.095581 0.904425,616.249878 0.906384,612.500122 
	C1.012118,410.166901 1.012097,207.833633 0.906484,5.500409 
	C0.904528,1.752007 1.749651,0.905806 5.499663,0.906874 
	C357.166168,1.006987 708.832703,1.006968 1060.499268,0.907069 
	C1064.246704,0.906004 1065.095703,1.748309 1065.093628,5.499369 
	C1064.987793,207.832596 1064.987793,410.165863 1065.093384,612.499084 
	C1065.095337,616.246338 1064.252319,617.096802 1060.500732,617.094116 
	C906.833923,616.984070 753.166931,617.000000 599.000000,617.000000 
z"/>
<path fill="#CD9567" opacity="1.000000" stroke="none" 
	d="
M634.949707,250.887558 
	C634.238831,261.836609 630.732910,270.947296 623.109802,278.584381 
	C599.337402,302.400482 575.794189,326.445221 552.135681,350.375214 
	C549.623840,352.915863 546.938110,355.284637 544.317810,357.747437 
	C542.763855,356.070831 543.255005,354.679596 543.253357,353.424988 
	C543.218811,327.430511 543.286987,301.435699 543.159607,275.441803 
	C543.135132,270.435486 544.648621,266.573914 548.323364,263.064117 
	C557.718994,254.090256 566.904358,244.890732 575.995361,235.606628 
	C578.689941,232.854782 579.951050,233.234573 581.721069,236.463013 
	C586.481262,245.145294 586.064392,253.315186 580.068359,261.197479 
	C576.724854,265.592743 572.916931,269.558838 568.660522,273.056793 
	C566.017273,275.229034 564.715515,277.744476 564.810059,281.245422 
	C564.998962,288.239166 564.893982,295.240631 564.945618,302.238617 
	C564.952515,303.172852 564.636230,304.481567 565.896118,304.734894 
	C566.507935,304.857941 567.427185,304.225769 567.990723,303.702362 
	C582.639648,290.095551 597.152405,276.324615 609.778625,260.782227 
	C615.746887,253.435547 614.392883,239.119080 607.464600,232.073120 
	C598.941467,223.405228 590.072266,215.078308 581.509766,206.448090 
	C579.023560,203.942261 577.471924,204.693909 575.378845,206.827789 
	C567.329041,215.034363 559.178101,223.142334 551.012756,231.234451 
	C548.926575,233.301941 546.931152,235.556229 543.315063,236.876541 
	C543.315063,227.604996 543.214050,218.699554 543.394531,209.799820 
	C543.433838,207.861267 544.644409,206.049026 546.117676,204.581268 
	C555.560120,195.173767 565.038696,185.801422 574.384033,176.298157 
	C577.388367,173.243057 579.702209,173.363190 582.712891,176.420517 
	C595.688843,189.597641 609.149841,202.310944 621.814880,215.775665 
	C630.785034,225.312149 635.115662,237.149521 634.949707,250.887558 
z"/>
<path fill="#CD9566" opacity="1.000000" stroke="none" 
	d="
M522.111816,208.324371 
	C522.937439,217.939682 523.317017,227.161880 522.029907,237.635727 
	C511.051331,226.967880 500.780426,217.288254 490.909668,207.216446 
	C487.878845,204.123901 486.167755,203.698730 483.074310,206.983719 
	C475.081818,215.471069 466.647522,223.541061 458.600311,231.978607 
	C450.834259,240.121338 450.083374,252.345642 456.571838,261.865631 
	C458.251740,264.330444 460.160004,266.693298 462.259155,268.809570 
	C472.811768,279.448242 483.442230,290.010040 494.097748,300.545837 
	C495.947815,302.375092 497.643127,304.503265 500.985962,305.458252 
	C500.985962,296.638153 501.258270,288.064484 500.861176,279.521912 
	C500.685455,275.742554 497.636200,273.124847 494.795563,270.702179 
	C488.687622,265.492920 482.594055,260.300049 481.450592,251.548126 
	C480.681580,245.662125 482.021088,240.368637 484.890076,235.281082 
	C486.200195,232.957825 487.434998,233.131653 489.093353,234.792923 
	C499.331604,245.049240 509.600555,255.274918 519.831543,265.538391 
	C522.411926,268.126953 522.561584,271.598267 522.574524,274.885620 
	C522.677490,301.043427 522.660583,327.201721 522.658264,353.359863 
	C522.658142,354.480133 523.092896,355.923309 521.904358,356.579163 
	C520.583374,357.308197 519.826172,355.929016 519.056580,355.176544 
	C493.088531,329.787231 466.759125,304.721222 442.299042,277.878082 
	C426.224518,260.237396 427.093353,233.866608 443.433533,216.445953 
	C456.414948,202.606110 470.168762,189.490479 483.592621,176.066299 
	C485.290009,174.368866 487.115936,172.608231 489.554779,174.862625 
	C500.908905,185.358002 511.878784,196.233994 522.111816,208.324371 
z"/>
<path fill="#CD976A" opacity="1.000000" stroke="none" 
	d="
M511.809021,436.478821 
	C512.030640,437.632843 512.000000,438.436798 512.034607,439.638641 
	C511.878815,441.491516 512.211914,443.012115 511.394958,444.739014 
	C506.648224,444.531311 500.543671,447.154205 497.915100,443.852020 
	C495.686584,441.052338 497.139648,435.247406 497.127045,430.771851 
	C497.080139,414.112640 497.214142,397.451874 497.014038,380.794891 
	C496.965424,376.750092 497.995636,375.170593 502.285217,375.361511 
	C513.959167,375.881042 510.963745,373.606842 515.131165,384.251556 
	C518.554565,392.995819 521.926758,401.760132 526.015137,410.307098 
	C526.015137,400.399963 526.210693,390.487122 525.922607,380.588348 
	C525.800842,376.404907 527.099304,375.196014 531.240051,375.343750 
	C542.536255,375.746704 540.724304,374.127594 540.790100,384.910583 
	C540.901917,403.235260 540.746582,421.561707 540.885437,439.885986 
	C540.912842,443.510284 540.358765,445.319397 536.052429,445.113770 
	C524.445862,444.559509 527.291443,447.216339 522.945801,435.921783 
	C520.079224,428.471344 517.347839,420.968842 514.299438,413.235901 
	C511.351685,411.641144 512.105164,409.171692 511.917877,406.960968 
	C511.875580,408.763580 512.171875,410.586365 511.762085,412.725281 
	C511.739258,414.474854 511.807465,415.883698 511.945740,417.649139 
	C512.262390,424.056885 511.627808,430.085663 511.809021,436.478821 
z"/>
<path fill="#CC9669" opacity="1.000000" stroke="none" 
	d="
M408.021332,403.000000 
	C408.018799,394.839569 408.112579,387.177246 407.963654,379.519653 
	C407.908447,376.679657 408.909698,375.750854 411.712738,375.807251 
	C419.203613,375.957977 426.702759,375.730286 434.192200,375.914093 
	C442.746368,376.123962 448.475037,381.419800 448.670258,389.911377 
	C448.980194,403.392883 449.064026,416.895569 448.662506,430.372009 
	C448.374207,440.049255 442.911469,444.871063 433.308716,445.006622 
	C426.315765,445.105347 419.313385,444.845245 412.328918,445.108856 
	C408.666504,445.247070 407.897858,443.803101 407.942932,440.469025 
	C408.109558,428.147919 408.016663,415.823303 408.021332,403.000000 
z"/>
<path fill="#CC9567" opacity="1.000000" stroke="none" 
	d="
M681.925476,445.019043 
	C675.613708,445.015991 669.788757,444.930359 663.967896,445.048035 
	C661.383301,445.100250 660.531677,444.200287 660.532410,441.563385 
	C660.537903,421.282318 660.190063,401.003326 660.718506,380.719269 
	C660.823486,376.690979 661.988953,375.594452 665.849243,375.758850 
	C672.825317,376.055878 679.825134,375.745819 686.808350,375.935608 
	C695.776978,376.179413 700.947876,381.473663 701.022766,390.444763 
	C701.122864,402.423309 700.637878,414.422211 701.174072,426.377838 
	C701.875305,442.012695 693.509155,445.922546 681.925476,445.019043 
z"/>
<path fill="#CC9567" opacity="1.000000" stroke="none" 
	d="
M708.896118,441.781494 
	C708.887451,421.151031 708.977112,400.999207 708.809570,380.849487 
	C708.777710,377.023468 709.666870,375.521271 713.774109,375.754974 
	C720.249268,376.123413 726.761536,375.776703 733.252686,375.943207 
	C742.349609,376.176422 747.807129,381.687561 747.991821,390.726929 
	C748.093811,395.720673 748.104431,400.721649 747.955994,405.713440 
	C747.829224,409.977783 746.934998,414.282257 743.245544,416.791504 
	C740.511536,418.651001 740.491577,420.171997 741.667053,422.858490 
	C744.332397,428.949982 746.566040,435.229675 749.200195,441.335724 
	C750.503418,444.356537 749.624451,445.300140 746.610474,445.018219 
	C746.445312,445.002777 746.277527,445.012085 746.111023,445.016052 
	C734.555298,445.291168 734.561768,445.288788 730.539917,434.518341 
	C728.784546,429.817505 726.996216,425.128937 725.222778,420.434845 
	C724.697937,420.523560 724.173157,420.612274 723.648376,420.700989 
	C723.648376,427.244110 723.437988,433.796600 723.729675,440.326660 
	C723.896667,444.064514 722.770508,445.528625 718.981750,445.081970 
	C716.681396,444.810760 714.322510,444.958710 711.993530,445.032776 
	C710.005615,445.095978 708.736694,444.521851 708.896118,441.781494 
z"/>
<path fill="#CC9568" opacity="1.000000" stroke="none" 
	d="
M360.950012,436.696716 
	C353.880371,446.605713 337.675110,449.273590 328.239075,442.345428 
	C324.408234,439.532684 322.224915,435.664032 321.925385,430.931610 
	C321.051971,417.132111 321.050842,403.324646 321.964294,389.525085 
	C322.050415,388.223907 322.395538,386.897308 322.854736,385.670227 
	C326.132812,376.910828 335.680084,372.976807 348.273651,375.138123 
	C356.797546,376.601044 362.646973,382.948212 362.804291,391.655090 
	C363.029846,404.140533 362.873169,416.633026 362.858582,429.122528 
	C362.855621,431.661194 362.130035,434.047546 360.950012,436.696716 
z"/>
<path fill="#CC9569" opacity="1.000000" stroke="none" 
	d="
M655.428894,441.447327 
	C655.627441,442.346588 655.954834,443.044128 655.744751,443.299805 
	C652.634705,447.083679 648.440613,444.152100 644.821228,444.974854 
	C642.804871,445.433228 641.742676,444.252167 641.404480,442.328766 
	C641.116943,440.693024 640.844421,439.054199 640.525513,437.424530 
	C638.834412,428.782471 636.651794,427.379639 627.932678,429.010803 
	C626.331482,429.310333 625.584900,430.106781 625.314880,431.515289 
	C625.065125,432.818298 625.012329,434.158142 624.785339,435.466583 
	C623.084778,445.268921 623.078857,445.155975 613.206787,445.073883 
	C609.970886,445.046967 608.893494,444.501740 609.641052,440.865814 
	C613.485107,422.169403 617.008850,403.407379 620.691895,384.677612 
	C622.430969,375.833923 622.479126,375.843384 631.899170,375.842926 
	C643.247925,375.842377 643.040710,375.879791 645.085266,387.204254 
	C648.330566,405.178802 651.884399,423.097656 655.428894,441.447327 
z"/>
<path fill="#CC966A" opacity="1.000000" stroke="none" 
	d="
M291.005310,409.003601 
	C291.001129,414.826782 291.086060,420.153107 290.963409,425.474640 
	C290.868530,429.591431 292.769043,431.711700 296.808167,431.915497 
	C301.367920,432.145538 301.145020,428.997955 301.089691,425.852875 
	C301.004822,421.029205 301.161499,416.200500 301.032227,411.378815 
	C300.963654,408.822296 301.902344,407.976257 304.480011,407.820740 
	C315.757629,407.140228 315.755310,407.058044 315.757141,418.205902 
	C315.758240,424.861359 315.661865,431.518555 315.793060,438.171326 
	C315.838928,440.497803 315.146637,441.888885 312.911255,442.722778 
	C304.238251,445.958252 295.447815,446.804474 286.557404,443.907471 
	C280.049988,441.787018 276.098419,436.496857 276.025879,429.680359 
	C275.891327,417.036530 275.951843,404.390015 276.013184,391.745026 
	C276.046936,384.787781 279.773895,380.080811 285.889557,377.464844 
	C293.664734,374.139008 301.797363,374.535553 309.911621,376.232910 
	C311.962585,376.661957 313.122406,377.834381 312.873810,380.089386 
	C312.801453,380.746246 312.873688,381.419098 312.880066,382.084595 
	C312.962555,390.672150 312.972015,390.611511 304.649658,389.314453 
	C302.535767,388.985016 300.321198,388.965607 298.187073,389.166748 
	C292.297852,389.721771 291.046112,391.153259 290.991150,397.024048 
	C290.955353,400.850555 290.997650,404.677795 291.005310,409.003601 
z"/>
<path fill="#CC9669" opacity="1.000000" stroke="none" 
	d="
M605.857910,440.262207 
	C599.223755,446.763763 579.590698,447.182709 572.704224,441.912048 
	C568.447144,438.653870 566.187439,434.390228 566.165771,429.053925 
	C566.116394,416.897919 566.005127,404.738861 566.215271,392.586151 
	C566.394714,382.211639 573.588745,376.041351 586.055176,375.137329 
	C587.877930,375.005127 589.718079,375.045685 591.548096,375.090576 
	C602.685059,375.363647 604.150635,377.126984 603.068359,388.293854 
	C602.841919,390.629974 602.158203,391.007599 599.958862,390.419006 
	C595.451477,389.212860 590.873291,388.406982 586.164734,389.550476 
	C582.770630,390.374756 581.078247,392.268372 581.108826,395.877472 
	C581.191956,405.701660 581.165283,415.527130 581.119568,425.351837 
	C581.103577,428.795685 582.387634,431.214752 585.960388,431.823944 
	C589.242920,432.383698 591.472290,431.667999 591.299255,427.519867 
	C591.084290,422.367279 591.373840,417.195312 591.239014,412.037109 
	C591.165283,409.213074 591.829102,407.909302 595.068237,407.807983 
	C605.984680,407.466583 605.978027,407.330505 605.954712,418.359131 
	C605.939636,425.519592 605.932617,432.680023 605.857910,440.262207 
z"/>
<path fill="#CC966A" opacity="1.000000" stroke="none" 
	d="
M488.000244,409.057129 
	C487.916107,417.536987 488.980682,416.617615 480.760956,416.657623 
	C470.923767,416.705475 471.146057,416.685455 470.899139,426.841980 
	C470.795898,431.087891 472.109283,432.550903 476.222137,432.000305 
	C478.186249,431.737305 480.214172,431.947693 482.213196,431.949188 
	C491.004669,431.955719 492.576691,434.021454 490.834595,442.769257 
	C490.424438,444.828827 489.276489,445.010162 487.676086,445.008820 
	C478.180725,445.000885 468.684937,444.955688 459.190369,445.043549 
	C456.785400,445.065796 456.023315,444.120239 456.029053,441.803101 
	C456.080597,420.980011 456.087341,400.156586 456.016815,379.333557 
	C456.008118,376.775116 456.873322,375.952606 459.455475,375.788269 
	C468.280243,375.226562 477.100922,375.563812 485.923065,375.499603 
	C489.670105,375.472290 491.080200,376.854553 490.912811,380.812958 
	C490.514618,390.230164 491.814209,388.758240 482.989075,388.892639 
	C482.322906,388.902802 481.656433,388.895111 480.990082,388.892548 
	C469.973633,388.849823 469.724274,389.198792 470.943634,400.287262 
	C471.178040,402.418823 471.981842,403.214325 474.022339,403.176971 
	C476.852997,403.125183 479.718964,403.470184 482.509979,403.139709 
	C486.879395,402.622345 488.841766,404.079132 488.000244,409.057129 
z"/>
<path fill="#CC9669" opacity="1.000000" stroke="none" 
	d="
M779.027344,388.888428 
	C777.207825,388.887634 775.868286,388.987183 774.546143,388.877289 
	C771.848938,388.653046 770.630127,389.587585 770.710754,392.515961 
	C771.061218,405.239990 768.899048,402.883728 781.075989,403.229797 
	C783.239563,403.291321 786.490540,401.882477 787.359741,404.524109 
	C788.477600,407.921204 788.024780,411.754578 787.403809,415.371429 
	C787.254822,416.239410 786.282166,416.533173 785.418518,416.581757 
	C784.256409,416.647186 783.090820,416.669556 781.926575,416.676971 
	C770.001343,416.752899 770.077759,416.746948 770.701233,428.495636 
	C770.835815,431.031555 771.575562,432.087494 774.185852,432.004761 
	C778.342957,431.873047 782.511414,432.092163 786.667847,431.950348 
	C789.248169,431.862305 790.049011,432.798553 790.162109,435.393280 
	C790.581787,445.013916 790.682739,445.012939 780.916931,445.021210 
	C773.925537,445.027130 766.931946,444.919006 759.943909,445.072235 
	C757.073303,445.135162 755.799133,444.479553 755.819702,441.244324 
	C755.951172,420.603943 755.949890,399.962036 755.836548,379.321472 
	C755.819336,376.190308 756.926758,375.337158 759.891602,375.384521 
	C768.711609,375.525482 777.536560,375.501282 786.357239,375.375580 
	C789.109924,375.336334 790.086792,376.195404 790.183228,379.064758 
	C790.513733,388.894623 790.629211,388.890747 779.027344,388.888428 
z"/>
<path fill="#CD9465" opacity="1.000000" stroke="none" 
	d="
M537.221069,183.671417 
	C536.453613,184.504089 535.934326,185.120148 535.125305,185.842758 
	C533.265930,187.323410 531.927917,186.428528 530.294006,185.258911 
	C529.467224,184.617065 528.938232,184.232224 528.211792,183.580536 
	C526.947998,182.542267 526.069031,181.595749 525.122437,180.270569 
	C524.875854,180.059036 524.952148,180.030548 524.950195,180.071198 
	C524.772888,179.789383 524.534851,179.521240 523.994873,179.188339 
	C523.581299,179.003326 523.415894,178.929779 522.889648,178.485092 
	C522.398315,177.997238 522.267822,177.880539 522.026001,177.526062 
	C521.796753,176.929199 521.603638,176.615204 521.101074,176.204132 
	C520.856262,176.068283 520.936157,176.099548 520.907471,176.131409 
	C520.227844,175.087204 519.275085,174.289841 518.113281,173.276550 
	C517.855347,173.105743 517.916138,173.042603 517.926392,173.085205 
	C517.782410,172.819641 517.577515,172.550003 517.101013,172.188843 
	C516.880066,172.058868 516.960449,172.038239 516.951660,172.078796 
	C516.782532,171.816101 516.575378,171.549103 516.101440,171.188629 
	C515.881348,171.058884 515.961731,171.037186 515.952393,171.077744 
	C515.783691,170.815018 515.574524,170.550415 515.103760,170.188019 
	C514.885010,170.056976 514.964539,170.033890 514.954834,170.074158 
	C514.781189,169.813660 514.572815,169.547760 514.097900,169.190582 
	C513.876099,169.064163 513.958191,169.043488 513.948059,169.084595 
	C513.780090,168.818832 513.576050,168.547241 513.095093,168.189941 
	C512.871277,168.063522 512.958923,168.078018 512.928101,168.110016 
	C511.002960,165.690872 508.612427,163.714615 506.284058,161.221497 
	C506.060486,160.978058 506.000336,160.994705 506.013184,160.966278 
	C504.366913,158.401703 504.351593,155.949783 506.687195,153.265137 
	C507.071136,152.718170 507.169586,152.509705 507.532654,152.024872 
	C507.959229,151.589493 508.121185,151.430496 508.588531,151.121048 
	C509.169708,150.775436 509.430603,150.562088 509.815369,150.118927 
	C509.954041,149.907272 509.981781,149.981903 509.944275,149.968597 
	C510.195190,149.782013 510.451813,149.569763 510.815186,149.111542 
	C510.949524,148.899445 510.977325,148.975113 510.938385,148.964691 
	C511.209961,148.776093 511.471558,148.542114 511.812531,148.023636 
	C512.281372,147.314499 512.628845,146.841904 513.218262,146.197342 
	C514.025757,145.329987 514.913757,145.044144 515.710815,144.132660 
	C515.900146,143.863052 515.965210,143.921631 515.922363,143.930588 
	C516.184387,143.780869 516.452393,143.574295 516.810791,143.097809 
	C516.938354,142.875992 516.958679,142.956848 516.917786,142.948807 
	C517.181763,142.780899 517.452087,142.576263 517.810547,142.097687 
	C517.938354,141.875351 517.959473,141.954849 517.918579,141.950043 
	C518.203247,141.775787 518.473633,141.541382 518.811707,141.004456 
	C519.375671,140.211899 519.823853,139.665344 520.521240,139.016724 
	C521.484131,138.526672 522.025757,137.939606 522.737122,137.108200 
	C522.902466,136.858826 522.949219,136.931564 522.906250,136.936630 
	C524.814453,134.515976 527.483032,132.834778 529.779785,130.289062 
	C530.025024,130.064987 530.007629,130.001755 530.037354,130.015686 
	C531.672180,128.887497 533.357666,128.587082 535.541504,129.790802 
	C535.919922,130.038086 535.986694,130.008041 535.976807,130.043289 
	C538.585083,132.486862 540.971130,135.132248 543.848755,137.749832 
	C544.437805,138.010788 544.694336,138.175919 544.958923,138.674210 
	C547.713623,141.921555 550.682373,144.659149 553.759949,147.761139 
	C556.232727,150.168182 558.466125,152.339142 560.829712,154.817963 
	C562.524658,156.996353 561.323425,158.583572 560.191162,160.511810 
	C559.757080,161.128799 559.571838,161.437317 559.134155,161.857056 
	C554.567871,166.746033 549.590454,170.882446 545.210754,176.075165 
	C544.836182,176.460663 544.719238,176.616638 544.339233,176.900177 
	C541.764404,179.057648 539.711914,181.354019 537.221069,183.671417 
z"/>
<path fill="#CC966A" opacity="1.000000" stroke="none" 
	d="
M385.510193,425.934387 
	C384.775391,431.010071 386.701477,432.827423 391.288116,432.235321 
	C393.250885,431.982025 395.302002,432.410522 397.264038,432.154449 
	C402.171112,431.514008 404.151886,433.143188 403.759430,438.415710 
	C403.220032,445.662323 404.556976,444.991272 396.916199,445.021729 
	C389.432648,445.051544 381.945190,444.893890 374.466919,445.095184 
	C371.305420,445.180298 370.069916,444.372223 370.091614,440.976349 
	C370.222290,420.521820 370.221283,400.065613 370.090302,379.611084 
	C370.068420,376.196442 371.429138,375.320007 374.518066,375.394897 
	C387.440277,375.708099 385.342468,373.614746 385.479431,386.029114 
	C385.624329,399.165527 385.509918,412.304810 385.510193,425.934387 
z"/>
<path fill="#383637" opacity="1.000000" stroke="none" 
	d="
M336.382385,480.921692 
	C336.380707,476.440582 336.319855,472.444794 336.406158,468.452209 
	C336.442993,466.748596 335.795441,464.449554 338.467896,464.090668 
	C340.769989,463.781525 343.149841,463.626160 344.485962,466.321198 
	C346.685852,470.758301 348.983887,475.146790 352.193481,479.555878 
	C352.193481,475.772827 352.145660,471.988953 352.213928,468.207123 
	C352.247498,466.346497 351.523529,463.933502 354.823853,463.973785 
	C357.977661,464.012268 356.962982,466.370453 356.988739,467.947052 
	C357.083832,473.770752 357.084930,479.598053 356.984894,485.421631 
	C356.954193,487.207092 357.935059,489.659668 354.751221,490.056793 
	C352.132141,490.383484 350.355194,489.540070 349.163269,487.035492 
	C346.828247,482.128998 344.276093,477.325867 341.108002,471.090851 
	C341.108002,477.102997 341.197418,481.611053 341.058167,486.112000 
	C341.011200,487.629852 342.218140,490.033752 338.982147,490.102051 
	C335.601898,490.173401 336.527832,487.706177 336.403717,485.900757 
	C336.301178,484.409851 336.382782,482.906311 336.382385,480.921692 
z"/>
<path fill="#343232" opacity="1.000000" stroke="none" 
	d="
M387.063110,481.919556 
	C387.063354,477.280029 386.997253,473.126160 387.093170,468.976013 
	C387.135468,467.144226 386.214569,464.650818 389.112488,464.105896 
	C391.891052,463.583496 394.243530,464.058014 395.636200,467.145569 
	C397.579224,471.453247 399.896484,475.592102 403.004852,479.662323 
	C403.004852,475.480347 402.991669,471.298340 403.012054,467.116455 
	C403.019196,465.650177 402.738098,464.058746 405.086578,463.975067 
	C407.419678,463.891937 407.859406,465.130737 407.846741,467.072144 
	C407.805511,473.383301 407.852631,479.695038 407.817322,486.006256 
	C407.808350,487.605988 408.175446,489.581299 405.865051,489.963989 
	C403.671387,490.327362 401.532837,490.237091 400.313995,487.820465 
	C397.863434,482.961761 395.372040,478.123718 391.934875,473.320984 
	C391.934875,477.618774 391.976776,481.917206 391.913940,486.214081 
	C391.889465,487.887939 392.618164,490.061279 389.593079,490.120056 
	C386.676819,490.176788 387.063904,488.200653 387.061401,486.392975 
	C387.059570,485.064209 387.062073,483.735443 387.063110,481.919556 
z"/>
<path fill="#333131" opacity="1.000000" stroke="none" 
	d="
M552.740234,465.687439 
	C557.576233,463.026611 562.417053,463.240021 566.896057,465.586243 
	C570.524780,467.487091 571.133667,472.810089 567.950317,475.946075 
	C565.987854,477.879456 566.385132,478.845428 567.629395,480.701569 
	C568.717346,482.324463 569.394165,484.283417 569.945801,486.183044 
	C570.288879,487.364349 572.195129,489.064636 570.003113,489.862488 
	C568.330383,490.471313 565.984253,490.848145 565.025940,488.128143 
	C564.256042,485.942902 563.331299,483.810425 562.427551,481.674774 
	C561.845886,480.300201 560.693848,479.575714 559.256653,479.731964 
	C557.149414,479.961060 558.076843,481.730835 557.919983,482.884216 
	C557.786560,483.864716 557.957703,484.883057 557.876831,485.875122 
	C557.729858,487.677734 558.727661,490.044922 555.342773,490.137177 
	C552.010559,490.227966 552.632751,487.982544 552.626221,486.094940 
	C552.603271,479.439087 552.636597,472.783051 552.740234,465.687439 
z"/>
<path fill="#2E2E2E" opacity="1.000000" stroke="none" 
	d="
M742.069763,464.479248 
	C749.129089,467.272186 751.640625,472.112762 750.322144,479.794922 
	C749.136169,486.704498 745.532043,489.791443 738.396851,490.008942 
	C729.975220,490.265686 729.975037,490.265717 729.980652,481.647369 
	C729.983704,476.981567 730.135620,472.309479 729.937012,467.652313 
	C729.812683,464.737030 730.932251,463.763184 733.708374,464.000000 
	C736.356995,464.225952 739.024902,464.226166 742.069763,464.479248 
z"/>
<path fill="#312F2F" opacity="1.000000" stroke="none" 
	d="
M447.777496,476.520905 
	C448.920410,473.004486 450.086151,469.904053 450.926056,466.717712 
	C451.508362,464.508728 452.737091,463.914856 454.859833,463.925629 
	C457.076111,463.936890 458.449554,464.320068 459.210327,466.831207 
	C461.219635,473.463654 463.678345,479.958954 465.781952,486.564941 
	C466.121307,487.630646 467.572998,489.661621 464.879822,490.014099 
	C463.163879,490.238678 461.041351,490.645844 460.694366,487.923645 
	C460.167755,483.791626 457.237213,484.159363 454.157318,483.989380 
	C451.071747,483.819061 449.556274,484.979004 449.101349,487.794708 
	C448.670593,490.460663 446.664642,490.444855 444.960754,489.950165 
	C442.685974,489.289764 444.130005,487.492310 444.493256,486.278839 
	C445.439056,483.119629 446.591370,480.022247 447.777496,476.520905 
z"/>
<path fill="#312F2F" opacity="1.000000" stroke="none" 
	d="
M378.133606,472.720215 
	C379.756500,477.491852 381.373505,481.850281 382.702911,486.294739 
	C383.032288,487.395691 384.637329,489.366486 382.160706,489.925476 
	C380.594940,490.278900 378.158722,490.948181 377.817078,488.158356 
	C377.306702,483.990753 374.503571,484.187653 371.358154,483.983765 
	C368.011475,483.766815 366.497131,485.021637 366.007172,488.142670 
	C365.626251,490.569061 363.610901,490.339294 362.096619,489.948792 
	C359.677979,489.325134 361.136749,487.561188 361.529602,486.338257 
	C363.609955,479.861969 365.910187,473.453766 367.867584,466.941803 
	C368.593842,464.525848 369.858185,463.927429 372.174744,463.909332 
	C374.612915,463.890350 375.824402,464.738800 376.286804,467.154541 
	C376.626343,468.928314 377.426636,470.613922 378.133606,472.720215 
z"/>
<path fill="#312F2F" opacity="1.000000" stroke="none" 
	d="
M639.832031,490.018677 
	C630.843018,490.015991 630.845276,490.015991 630.847839,481.372375 
	C630.849243,476.717224 630.939026,472.059082 630.798950,467.408051 
	C630.721436,464.834503 631.600525,463.799500 634.248718,463.978729 
	C637.062073,464.169159 639.899475,464.063019 642.724426,463.999268 
	C644.232666,463.965240 645.345337,464.206573 645.386475,466.048706 
	C645.426208,467.831787 644.488892,468.331207 642.881592,468.251038 
	C641.389099,468.176605 639.881653,468.340698 638.395447,468.219788 
	C635.788025,468.007721 636.020020,469.722656 635.946472,471.438202 
	C635.863586,473.369568 636.155334,474.718567 638.575378,474.416534 
	C639.554565,474.294312 640.566772,474.453827 641.563965,474.454681 
	C643.070984,474.455933 644.126160,474.822571 644.053223,476.690186 
	C643.980530,478.551483 642.781006,478.523682 641.404907,478.864777 
	C639.476868,479.342743 636.117004,476.756134 635.906189,481.405945 
	C635.762512,484.574554 636.238281,486.600952 640.056702,485.906494 
	C640.861450,485.760132 641.717285,485.921082 642.546265,485.877167 
	C644.168823,485.791260 645.615295,485.886169 645.550293,488.087036 
	C645.494080,489.989441 644.207153,490.083527 642.778687,490.027008 
	C641.948669,489.994141 641.116333,490.019775 639.832031,490.018677 
z"/>
<path fill="#343232" opacity="1.000000" stroke="none" 
	d="
M573.079224,464.392365 
	C576.617432,463.205292 578.137817,464.686188 578.948120,467.805084 
	C580.237732,472.768677 581.832642,477.652985 583.610596,483.618134 
	C586.395569,477.911224 587.253967,472.581085 588.991150,467.571442 
	C589.500244,466.103302 589.366638,464.054626 591.696167,463.993530 
	C593.579651,463.944183 595.483154,463.643372 594.368164,466.849243 
	C591.974304,473.732025 589.873657,480.717957 587.721680,487.682922 
	C587.135315,489.580505 586.015442,490.324127 584.070679,490.123901 
	C582.336060,489.945251 580.492615,490.563263 579.765625,487.935730 
	C577.607422,480.135468 574.213135,472.701324 573.079224,464.392365 
z"/>
<path fill="#343232" opacity="1.000000" stroke="none" 
	d="
M649.641479,467.973694 
	C652.367493,463.062134 656.537048,463.411987 660.740723,464.117126 
	C662.619324,464.432281 663.697449,465.713989 663.325623,467.691681 
	C662.792603,470.526611 661.207092,468.579773 659.980835,468.338379 
	C658.052551,467.958771 655.726379,467.098755 654.698792,469.469299 
	C653.496521,472.242767 656.014221,473.072998 657.875610,474.114014 
	C659.460510,475.000397 661.189026,475.757904 662.518677,476.947266 
	C665.931152,479.999542 665.684387,485.333099 662.180054,488.370636 
	C659.008728,491.119537 651.092285,491.293671 649.187866,488.549835 
	C648.423218,487.448120 648.181396,485.955231 648.978333,484.759613 
	C649.831238,483.479950 650.668640,484.910736 651.508057,485.096466 
	C652.466125,485.308441 653.371582,485.858612 654.329468,485.949127 
	C656.135498,486.119720 658.180542,486.376831 659.011475,484.167450 
	C659.930908,481.722748 658.342346,480.412415 656.387329,479.570831 
	C651.410400,477.428345 647.584961,474.644196 649.641479,467.973694 
z"/>
<path fill="#333131" opacity="1.000000" stroke="none" 
	d="
M515.284058,489.881317 
	C512.842712,488.858093 511.366333,487.281250 512.543762,485.108002 
	C513.681519,483.008087 515.001160,485.411102 516.271179,485.613373 
	C518.699280,486.000000 521.550720,487.121613 522.828186,484.068298 
	C524.097900,481.033539 521.224731,480.215302 519.250183,479.078217 
	C517.817200,478.252960 516.236206,477.573822 515.030762,476.486389 
	C512.163147,473.899628 512.053833,468.895996 514.606567,466.092957 
	C516.964355,463.503967 523.876099,462.817413 526.236084,464.884613 
	C527.464417,465.960571 527.344788,467.347534 526.887329,468.524933 
	C526.354431,469.896393 525.232422,468.849609 524.360962,468.673615 
	C523.241394,468.447571 522.133118,468.147858 521.004517,467.988892 
	C519.671509,467.801117 518.749512,468.533447 518.263245,469.676697 
	C517.727234,470.936951 518.347717,472.030090 519.334473,472.722382 
	C520.549194,473.574677 521.900635,474.249603 523.241577,474.901306 
	C527.284363,476.866272 529.554749,479.749451 528.298584,484.479126 
	C527.040833,489.214508 523.372864,490.396088 519.102173,490.512299 
	C517.958069,490.543457 516.802979,490.171112 515.284058,489.881317 
z"/>
<path fill="#312F2F" opacity="1.000000" stroke="none" 
	d="
M542.513000,478.786865 
	C538.939026,478.241730 537.877869,479.360352 537.887756,482.712555 
	C537.897583,486.043579 539.538879,486.051819 541.858337,485.898041 
	C543.014709,485.821381 544.182129,485.922699 545.340942,485.867615 
	C546.971191,485.790131 547.866516,486.414185 547.789246,488.149963 
	C547.720581,489.693054 546.743286,490.030090 545.436584,490.023804 
	C542.118530,490.007812 538.799255,489.963623 535.482666,490.032654 
	C533.478210,490.074371 532.950500,489.062408 532.962708,487.263641 
	C533.008850,480.461792 532.973938,473.659424 532.992798,466.857330 
	C532.994568,466.204926 532.982849,465.453766 533.283386,464.921051 
	C533.957275,463.726532 546.387268,463.470306 547.154785,464.690582 
	C548.042603,466.101959 548.118591,467.672485 546.076233,468.148010 
	C544.814453,468.441803 543.434448,468.238159 542.107483,468.238770 
	C540.014099,468.239716 537.928406,467.652924 537.897888,471.222168 
	C537.869202,474.571198 539.541626,474.517242 541.874146,474.462494 
	C543.144897,474.432617 544.655457,473.913574 545.650085,475.016724 
	C546.103638,475.519684 546.178772,476.571625 546.076599,477.327393 
	C545.809937,479.298523 544.169556,478.673309 542.513000,478.786865 
z"/>
<path fill="#343232" opacity="1.000000" stroke="none" 
	d="
M613.975464,476.155334 
	C614.241272,485.090454 616.167908,486.547760 624.610840,484.444244 
	C625.527039,484.215973 626.304626,483.955994 626.589111,484.949402 
	C627.092285,486.706635 626.676636,488.288147 624.893738,489.156403 
	C621.418945,490.848602 617.816711,490.997131 614.311157,489.418182 
	C608.925842,486.992523 606.618530,478.733337 609.118835,471.367157 
	C611.058044,465.653931 616.010132,462.812775 622.083252,463.938263 
	C624.110535,464.313965 626.044678,464.916199 626.553345,467.244751 
	C626.712646,467.974152 626.590942,468.961639 626.195557,469.569031 
	C625.616577,470.458405 624.805481,469.742981 624.030884,469.490997 
	C617.357666,467.320221 615.214478,468.673126 613.975464,476.155334 
z"/>
<path fill="#333131" opacity="1.000000" stroke="none" 
	d="
M418.866821,472.087341 
	C417.570282,475.040955 417.755371,477.749603 418.229126,480.340668 
	C419.086334,485.028961 422.493439,486.692139 427.157288,485.256348 
	C428.219574,484.929352 429.737488,482.590698 430.701965,485.215149 
	C431.338013,486.946045 430.438354,488.315369 428.730469,489.287872 
	C423.684479,492.161011 416.188843,489.990723 413.793060,484.687988 
	C411.385895,479.360199 411.643372,473.958038 414.402313,468.855072 
	C416.966583,464.112061 423.664459,462.253754 428.348480,464.593689 
	C430.264832,465.550995 431.361877,467.052490 430.598236,468.982544 
	C429.608215,471.484863 428.066040,469.281525 426.983337,468.852112 
	C423.393463,467.428223 420.863098,468.485870 418.866821,472.087341 
z"/>
<path fill="#454241" opacity="1.000000" stroke="none" 
	d="
M725.847534,468.165680 
	C720.907898,467.886383 719.097412,469.650330 719.687378,474.516602 
	C720.182495,478.600677 719.751404,482.793060 719.805176,486.936523 
	C719.829407,488.805969 719.571777,490.110657 717.193054,490.174683 
	C714.634033,490.243530 714.161011,488.993744 714.203308,486.810974 
	C714.296387,482.005615 714.124695,477.194061 714.265869,472.391083 
	C714.341309,469.822479 713.883545,468.196869 710.814758,468.583862 
	C709.044128,468.807129 707.375122,468.528503 707.396057,466.175568 
	C707.418518,463.652649 709.313171,463.974121 710.959839,463.974213 
	C715.104004,463.974457 719.250122,464.049561 723.391602,463.943939 
	C726.453186,463.865845 727.347839,465.077515 725.847534,468.165680 
z"/>
<path fill="#312F2F" opacity="1.000000" stroke="none" 
	d="
M312.052887,470.990906 
	C311.254974,475.273834 313.599091,475.366058 316.362762,475.252136 
	C318.025818,475.183563 320.345520,474.475616 320.404205,477.430420 
	C320.461426,480.311340 318.259796,480.047180 316.524506,479.757965 
	C312.602997,479.104492 311.460114,480.810852 312.020905,484.405151 
	C312.173004,485.380005 311.985840,486.402771 312.054718,487.396637 
	C312.179382,489.196136 311.664093,490.152283 309.587830,490.111633 
	C307.690216,490.074432 306.933594,489.475159 306.955902,487.510437 
	C307.033356,480.687317 306.994934,473.862701 306.971222,467.038757 
	C306.965454,465.386353 307.189209,464.020050 309.304352,464.030029 
	C312.466583,464.044952 315.628937,464.029938 318.791260,464.021729 
	C320.145203,464.018219 320.938293,464.475677 320.992767,466.030701 
	C321.053467,467.763275 320.147186,468.093597 318.689209,468.577118 
	C316.494904,469.304871 313.189484,466.374451 312.052887,470.990906 
z"/>
<path fill="#2E2E2E" opacity="1.000000" stroke="none" 
	d="
M695.790955,485.578491 
	C695.790894,479.481354 695.718506,473.844116 695.835510,468.210754 
	C695.870483,466.523834 694.713928,464.018524 698.204834,463.954681 
	C701.958923,463.886047 700.860413,466.552734 700.907532,468.451874 
	C701.014526,472.758942 701.174866,477.086700 700.873230,481.375061 
	C700.623962,484.918823 701.907043,486.049530 705.309082,485.714905 
	C706.880432,485.560303 709.261841,484.745880 709.350769,487.788300 
	C709.441467,490.894653 707.079224,489.913910 705.463257,489.994354 
	C703.479248,490.093079 701.459778,489.807800 699.503113,490.058838 
	C696.190735,490.483734 695.420654,488.862152 695.790955,485.578491 
z"/>
<path fill="#2E2E2E" opacity="1.000000" stroke="none" 
	d="
M470.072021,466.451569 
	C470.275696,463.354065 472.271790,463.942017 473.797882,464.089630 
	C475.812714,464.284454 475.194458,466.036407 475.212189,467.217804 
	C475.282043,471.867462 475.441345,476.530579 475.171356,481.165649 
	C474.970612,484.611481 476.031555,486.021759 479.597748,485.745270 
	C481.259369,485.616455 484.037231,484.559509 483.895691,488.028229 
	C483.770233,491.103424 481.269897,489.929382 479.727539,489.968109 
	C470.075775,490.210510 470.073700,490.164246 470.067719,480.359955 
	C470.065002,475.875336 470.066620,471.390717 470.072021,466.451569 
z"/>
<path fill="#454241" opacity="1.000000" stroke="none" 
	d="
M325.326782,484.632690 
	C325.326080,478.531464 325.322845,472.886505 325.326569,467.241516 
	C325.327698,465.504883 325.354950,463.957092 327.853546,463.897125 
	C330.400330,463.835968 330.917328,465.073273 330.891296,467.257874 
	C330.820099,473.234039 330.957245,479.213593 330.823303,485.187592 
	C330.778778,487.173279 332.153503,490.208282 328.070984,490.161682 
	C323.989746,490.115112 325.738708,487.046997 325.326782,484.632690 
z"/>
<path fill="#454241" opacity="1.000000" stroke="none" 
	d="
M603.846130,468.300201 
	C603.840515,474.730743 603.805725,480.696899 603.845947,486.662567 
	C603.859558,488.682861 603.696167,490.187042 600.999146,490.173065 
	C598.210144,490.158661 598.270020,488.465912 598.275452,486.552673 
	C598.293335,480.255310 598.278320,473.957825 598.289856,467.660400 
	C598.293274,465.826233 598.069153,463.978485 600.906677,463.900787 
	C604.004639,463.815887 603.892822,465.764618 603.846130,468.300201 
z"/>
<path fill="#2E2E2E" opacity="1.000000" stroke="none" 
	d="
M434.925537,487.729919 
	C434.919586,480.625000 434.903656,473.995758 434.928009,467.366669 
	C434.933777,465.789368 434.459930,464.010986 437.176483,463.932434 
	C439.876923,463.854340 440.041107,465.288391 440.020599,467.348053 
	C439.954712,473.976562 440.012756,480.606232 439.982239,487.235291 
	C439.977295,488.311584 440.352203,489.835083 438.659973,489.932617 
	C437.227173,490.015198 435.129089,490.992615 434.925537,487.729919 
z"/>
<path fill="#CD976A" opacity="1.000000" stroke="none" 
	d="
M545.242554,176.237823 
	C547.762634,170.058044 553.247986,166.302612 558.547363,162.015533 
	C555.324402,167.541443 550.077332,171.526352 545.242554,176.237823 
z"/>
<path fill="#383637" opacity="1.000000" stroke="none" 
	d="
M753.145386,486.921173 
	C753.572693,484.211884 755.164551,483.664001 757.160461,484.092346 
	C759.022766,484.492035 759.067505,486.052612 759.027588,487.596649 
	C758.987488,489.145691 758.282898,490.053802 756.710876,490.215302 
	C754.553406,490.436920 753.213379,489.643341 753.145386,486.921173 
z"/>
<path fill="#FCF8F0" opacity="1.000000" stroke="none" 
	d="
M512.059143,436.405029 
	C510.877655,430.809875 511.590637,424.741516 511.802490,418.348755 
	C514.002380,422.110168 513.043884,426.397949 512.560303,430.578339 
	C512.352234,432.377350 512.079407,434.164276 512.059143,436.405029 
z"/>
<path fill="#CD976A" opacity="1.000000" stroke="none" 
	d="
M553.912170,147.674866 
	C549.858337,146.437775 547.316345,143.177917 545.055847,139.247910 
	C548.609741,141.047272 551.141174,144.278992 553.912170,147.674866 
z"/>
<path fill="#CD976A" opacity="1.000000" stroke="none" 
	d="
M544.002625,137.639709 
	C540.166992,136.963104 538.154541,133.812622 536.013428,130.416214 
	C539.333252,131.700867 541.490234,134.647400 544.002625,137.639709 
z"/>
<path fill="#CD976A" opacity="1.000000" stroke="none" 
	d="
M506.651489,153.042786 
	C506.470856,155.297867 505.657349,157.627487 506.019592,160.525528 
	C501.570557,158.166656 502.766541,155.616501 506.651489,153.042786 
z"/>
<path fill="#CD976A" opacity="1.000000" stroke="none" 
	d="
M506.130005,161.303879 
	C509.406189,161.998901 511.419586,164.434525 512.902954,167.784485 
	C510.077698,166.574951 508.115356,164.126236 506.130005,161.303879 
z"/>
<path fill="#CD976A" opacity="1.000000" stroke="none" 
	d="
M537.296936,183.822449 
	C538.012939,180.588303 540.464783,178.613831 543.725159,177.048325 
	C542.572205,179.892212 540.090393,181.818634 537.296936,183.822449 
z"/>
<path fill="#CD976A" opacity="1.000000" stroke="none" 
	d="
M529.699707,130.135681 
	C529.406555,133.801636 525.881897,134.693192 523.188354,136.829147 
	C524.384583,134.069077 526.908325,132.165558 529.699707,130.135681 
z"/>
<path fill="#FCF8F0" opacity="1.000000" stroke="none" 
	d="
M511.964233,413.049133 
	C510.775024,410.853577 511.181000,408.546692 511.114624,406.091827 
	C513.806274,407.512329 512.260864,410.556244 513.907593,412.631592 
	C513.447815,412.998810 512.852600,413.015503 511.964233,413.049133 
z"/>
<path fill="#CD976A" opacity="1.000000" stroke="none" 
	d="
M535.798950,129.758636 
	C534.247375,130.030121 532.574768,130.022156 530.484619,130.021912 
	C531.690552,127.331009 533.549683,127.033379 535.798950,129.758636 
z"/>
<path fill="#CD976A" opacity="1.000000" stroke="none" 
	d="
M560.243896,160.700974 
	C560.284180,159.165970 560.625977,157.511658 560.963867,155.491577 
	C564.603149,157.231750 562.110291,158.871445 560.243896,160.700974 
z"/>
<path fill="#FCF8F0" opacity="1.000000" stroke="none" 
	d="
M511.541077,444.969360 
	C511.373840,443.585327 511.538513,442.111053 511.901489,440.336670 
	C513.350281,441.712830 513.609863,443.342743 511.541077,444.969360 
z"/>
<path fill="#CD976A" opacity="1.000000" stroke="none" 
	d="
M530.090820,185.298096 
	C531.372925,185.323196 532.749512,185.644470 534.480896,185.957535 
	C533.041260,189.030365 531.632629,187.058838 530.090820,185.298096 
z"/>
<path fill="#CD976A" opacity="1.000000" stroke="none" 
	d="
M517.939331,173.416168 
	C519.538269,173.010834 520.623108,173.696503 520.888916,175.800537 
	C519.533386,175.812195 518.726074,174.830688 517.939331,173.416168 
z"/>
<path fill="#CD976A" opacity="1.000000" stroke="none" 
	d="
M524.948853,180.356873 
	C526.278809,180.520737 527.198669,181.512390 527.939209,183.048416 
	C526.502747,183.005936 525.858643,181.721878 524.948853,180.356873 
z"/>
<path fill="#CD976A" opacity="1.000000" stroke="none" 
	d="
M515.618042,143.930588 
	C516.008545,145.174652 515.455261,145.924011 513.777588,146.006485 
	C513.697083,144.990295 514.516907,144.494629 515.618042,143.930588 
z"/>
<path fill="#CD976A" opacity="1.000000" stroke="none" 
	d="
M522.602783,136.942032 
	C522.923950,137.885040 522.671265,138.719620 521.124146,138.905670 
	C521.281311,138.284836 521.792236,137.655045 522.602783,136.942032 
z"/>
<path fill="#CD976A" opacity="1.000000" stroke="none" 
	d="
M509.701233,149.995331 
	C509.764252,150.195633 509.574463,150.483978 509.139313,150.871475 
	C509.078766,150.674866 509.263611,150.379120 509.701233,149.995331 
z"/>
<path fill="#CD976A" opacity="1.000000" stroke="none" 
	d="
M518.676636,140.881256 
	C518.750916,141.080307 518.574402,141.402191 518.137817,141.834656 
	C518.060425,141.631516 518.243164,141.317795 518.676636,140.881256 
z"/>
<path fill="#CD976A" opacity="1.000000" stroke="none" 
	d="
M517.680298,141.957794 
	C517.751648,142.168381 517.564941,142.461380 517.127563,142.847580 
	C517.058716,142.640579 517.240479,142.340393 517.680298,141.957794 
z"/>
<path fill="#CD976A" opacity="1.000000" stroke="none" 
	d="
M516.678955,142.957092 
	C516.752197,143.168549 516.565979,143.461105 516.129639,143.846588 
	C516.059509,143.639084 516.239563,143.338623 516.678955,142.957092 
z"/>
<path fill="#CD976A" opacity="1.000000" stroke="none" 
	d="
M511.683228,147.902344 
	C511.758026,148.101639 511.582092,148.416153 511.152802,148.842468 
	C511.077118,148.642029 511.254791,148.329803 511.683228,147.902344 
z"/>
<path fill="#CD976A" opacity="1.000000" stroke="none" 
	d="
M510.699341,148.987518 
	C510.764191,149.186493 510.578857,149.473526 510.150146,149.857925 
	C510.087555,149.662048 510.268341,149.368820 510.699341,148.987518 
z"/>
<path fill="#CD976A" opacity="1.000000" stroke="none" 
	d="
M522.502930,178.230225 
	C522.528809,178.113953 522.778381,178.334808 522.829468,178.396774 
	C522.880615,178.458740 522.477051,178.346481 522.502930,178.230225 
z"/>
<path fill="#CD976A" opacity="1.000000" stroke="none" 
	d="
M507.758484,151.676086 
	C507.797241,151.748505 507.737640,151.770218 507.741699,151.785614 
	C507.745758,151.801010 507.719727,151.603668 507.758484,151.676086 
z"/>
<path fill="#CD976A" opacity="1.000000" stroke="none" 
	d="
M523.873840,179.325287 
	C524.071289,179.249283 524.395996,179.421707 524.834473,179.852997 
	C524.632568,179.932465 524.316772,179.753082 523.873840,179.325287 
z"/>
<path fill="#CD976A" opacity="1.000000" stroke="none" 
	d="
M512.947998,168.325928 
	C513.164978,168.250061 513.458679,168.436600 513.845154,168.874420 
	C513.633484,168.946579 513.329102,168.767456 512.947998,168.325928 
z"/>
<path fill="#CD976A" opacity="1.000000" stroke="none" 
	d="
M513.962769,169.319000 
	C514.169189,169.248337 514.462219,169.432510 514.850220,169.865555 
	C514.646545,169.934219 514.347961,169.754028 513.962769,169.319000 
z"/>
<path fill="#CD976A" opacity="1.000000" stroke="none" 
	d="
M514.964355,170.315735 
	C515.175720,170.244476 515.466431,170.431992 515.850098,170.868912 
	C515.643250,170.937057 515.343506,170.755783 514.964355,170.315735 
z"/>
<path fill="#CD976A" opacity="1.000000" stroke="none" 
	d="
M515.961792,171.317535 
	C516.173035,171.245865 516.464722,171.432846 516.849670,171.869598 
	C516.642700,171.938309 516.342468,171.757233 515.961792,171.317535 
z"/>
<path fill="#CD976A" opacity="1.000000" stroke="none" 
	d="
M516.959961,172.317978 
	C517.171631,172.247498 517.463257,172.436127 517.845703,172.876282 
	C517.637634,172.944244 517.338745,172.760666 516.959961,172.317978 
z"/>
<path fill="#CD976A" opacity="1.000000" stroke="none" 
	d="
M520.933716,176.343521 
	C521.159912,176.287933 521.463501,176.507584 521.840942,177.007751 
	C521.613525,177.065109 521.312378,176.841934 520.933716,176.343521 
z"/>
<path fill="#FCF8F0" opacity="1.000000" stroke="none" 
	d="
M510.503326,403.533630 
	C510.515076,403.502869 510.491577,403.564423 510.503326,403.533630 
z"/>
<path fill="#FEFBF5" opacity="1.000000" stroke="none" 
	d="
M431.294617,431.693146 
	C429.718170,431.897552 428.541656,431.866241 427.394379,432.034332 
	C423.941498,432.540283 422.773163,431.213257 422.835175,427.655945 
	C423.041260,415.832397 422.984619,404.002808 422.893463,392.176575 
	C422.872192,389.413544 423.294220,387.672913 426.643097,387.999481 
	C429.667938,388.294434 433.726074,387.090210 433.818146,391.894562 
	C434.047943,403.883362 433.902191,415.879517 433.882111,427.872711 
	C433.879395,429.483276 433.157806,430.752228 431.294617,431.693146 
z"/>
<path fill="#FCF8F0" opacity="1.000000" stroke="none" 
	d="
M685.023071,388.737488 
	C685.768738,389.893799 686.497437,390.795807 686.505737,391.704376 
	C686.615112,403.677765 686.791138,415.655121 686.577820,427.624817 
	C686.485413,432.812073 682.211975,431.881134 678.759521,432.097382 
	C674.799316,432.345459 675.134827,429.833130 675.143066,427.244019 
	C675.177368,416.429718 675.138550,405.615234 675.148682,394.800812 
	C675.155334,387.690399 675.172974,387.678253 682.243713,388.019409 
	C683.058472,388.058746 683.862366,388.325195 685.023071,388.737488 
z"/>
<path fill="#FCF8F0" opacity="1.000000" stroke="none" 
	d="
M733.241577,391.941040 
	C733.755188,395.976654 733.287048,399.595184 733.273804,403.209656 
	C733.255127,408.302429 730.092529,407.971161 726.624817,408.098083 
	C722.534302,408.247772 723.225647,405.497314 723.206177,403.096863 
	C723.180664,399.957764 723.089294,396.812073 723.253052,393.681122 
	C723.354797,391.736053 722.242249,388.824310 725.419983,388.473541 
	C728.325317,388.152832 731.943420,387.109802 733.241577,391.941040 
z"/>
<path fill="#FDF9F3" opacity="1.000000" stroke="none" 
	d="
M336.180695,416.973480 
	C336.180420,409.342621 336.228546,402.206482 336.161987,395.071472 
	C336.122803,390.869781 337.908356,388.284790 342.257904,388.360443 
	C346.615662,388.436218 348.137970,391.023743 348.061890,395.279694 
	C347.878082,405.564911 347.928131,415.855957 348.015045,426.143555 
	C348.047424,429.974823 346.671173,432.057129 342.580872,432.171143 
	C338.479980,432.285522 336.278198,430.598450 336.211792,426.429504 
	C336.164215,423.443176 336.188599,420.455658 336.180695,416.973480 
z"/>
<path fill="#FCF8F0" opacity="1.000000" stroke="none" 
	d="
M628.161133,413.171997 
	C629.447754,405.791382 630.695923,398.843323 631.944092,391.895233 
	C632.212952,391.923370 632.481873,391.951508 632.750732,391.979645 
	C633.901978,398.647522 635.087891,405.309692 636.176392,411.987823 
	C636.405640,413.394409 637.997742,415.869019 635.284363,415.877502 
	C632.926208,415.884888 629.062622,418.636932 628.161133,413.171997 
z"/>
<path fill="#FDF9F3" opacity="1.000000" stroke="none" 
	d="
M558.210327,474.751221 
	C558.657166,472.292084 555.922913,468.838654 560.084839,468.212952 
	C562.364380,467.870239 564.433044,468.966461 564.269287,471.780884 
	C564.044373,475.648682 561.178223,475.342468 558.210327,474.751221 
z"/>
<path fill="#FEFBF5" opacity="1.000000" stroke="none" 
	d="
M743.954041,482.646301 
	C742.901123,484.036224 741.937317,484.815125 740.580078,485.264465 
	C735.868958,486.824127 735.033997,486.313873 735.008606,481.486481 
	C734.994568,478.821228 734.739563,476.119232 735.098755,473.503235 
	C735.342590,471.727173 733.267273,468.690399 736.808655,468.315979 
	C740.114929,467.966370 743.268982,469.047333 744.481262,472.571320 
	C745.578369,475.760559 745.632324,479.095001 743.954041,482.646301 
z"/>
<path fill="#FCF8F0" opacity="1.000000" stroke="none" 
	d="
M454.757629,470.804108 
	C456.060120,473.716003 457.054321,476.458557 458.180481,479.565125 
	C455.916168,480.247192 453.952820,480.128601 451.526459,479.619629 
	C452.540558,476.502258 453.494934,473.568512 454.757629,470.804108 
z"/>
<path fill="#FCF8F0" opacity="1.000000" stroke="none" 
	d="
M372.909729,472.523865 
	C373.651825,475.058655 374.310516,477.235382 375.060364,479.713440 
	C372.843933,479.964081 369.603760,480.872986 369.238770,479.284180 
	C368.592041,476.468628 370.373291,473.471497 371.602020,470.691956 
	C372.010101,471.183258 372.418182,471.674530 372.909729,472.523865 
z"/>
</svg>